HIERARCHY
ROOT Hips
{
	OFFSET 0.00000 0.00000 0.00000
	CHANNELS 6 Xposition Yposition Zposition Zrotation Yrotation Xrotation 
	JOINT LHipJoint
	{
		OFFSET 0 0 0
		CHANNELS 3 Zrotation Yrotation Xrotation
		JOINT LeftUpLeg
		{
			OFFSET 1.62964 -1.40469 0.78906
			CHANNELS 3 Zrotation Yrotation Xrotation
			JOINT LeftLeg
			{
				OFFSET 2.29640 -6.30932 0.00000
				CHANNELS 3 Zrotation Yrotation Xrotation
				JOINT LeftFoot
				{
					OFFSET 2.29451 -6.30412 0.00000
					CHANNELS 3 Zrotation Yrotation Xrotation
					JOINT LeftToeBase
					{
						OFFSET 0.03611 -0.09921 1.56387
						CHANNELS 3 Zrotation Yrotation Xrotation
						End Site
						{
							OFFSET 0.00000 -0.00000 0.80291
						}
					}
				}
			}
		}
	}
	JOINT RHipJoint
	{
		OFFSET 0 0 0
		CHANNELS 3 Zrotation Yrotation Xrotation
		JOINT RightUpLeg
		{
			OFFSET -1.73712 -1.40469 0.78906
			CHANNELS 3 Zrotation Yrotation Xrotation
			JOINT RightLeg
			{
				OFFSET -2.28137 -6.26801 0.00000
				CHANNELS 3 Zrotation Yrotation Xrotation
				JOINT RightFoot
				{
					OFFSET -2.28681 -6.28298 0.00000
					CHANNELS 3 Zrotation Yrotation Xrotation
					JOINT RightToeBase
					{
						OFFSET -0.15927 -0.43759 1.61103
						CHANNELS 3 Zrotation Yrotation Xrotation
						End Site
						{
							OFFSET -0.00000 -0.00000 0.84630
						}
					}
				}
			}
		}
	}
	JOINT LowerBack
	{
		OFFSET 0 0 0
		CHANNELS 3 Zrotation Yrotation Xrotation
		JOINT Spine
		{
			OFFSET -0.04227 2.04338 -0.00225
			CHANNELS 3 Zrotation Yrotation Xrotation
			JOINT Spine1
			{
				OFFSET -0.02148 2.04482 -0.04273
				CHANNELS 3 Zrotation Yrotation Xrotation
				JOINT Neck
				{
					OFFSET 0 0 0
					CHANNELS 3 Zrotation Yrotation Xrotation
					JOINT Neck1
					{
						OFFSET 0.09180 1.44629 0.19359
						CHANNELS 3 Zrotation Yrotation Xrotation
						JOINT Head
						{
							OFFSET 0.00887 1.40645 0.14750
							CHANNELS 3 Zrotation Yrotation Xrotation
							End Site
							{
								OFFSET -0.00669 1.50671 0.03707
							}
						}
					}
				}
				JOINT LeftShoulder
				{
					OFFSET 0 0 0
					CHANNELS 3 Zrotation Yrotation Xrotation
					JOINT LeftArm
					{
						OFFSET 2.17674 1.86763 -0.06520
						CHANNELS 3 Zrotation Yrotation Xrotation
						JOINT LeftForeArm
						{
							OFFSET 4.65776 -0.00000 0.00000
							CHANNELS 3 Zrotation Yrotation Xrotation
							JOINT LeftHand
							{
								OFFSET 3.55539 -0.00000 0.00000
								CHANNELS 3 Zrotation Yrotation Xrotation
								JOINT LeftFingerBase
								{
									OFFSET 0 0 0
									CHANNELS 3 Zrotation Yrotation Xrotation
									JOINT LeftHandIndex1
									{
										OFFSET 0.70726 -0.00000 0.00000
										CHANNELS 3 Zrotation Yrotation Xrotation
										End Site
										{
											OFFSET 0.57022 -0.00000 0.00000
										}
									}
								}
								JOINT LThumb
								{
									OFFSET 0 0 0
									CHANNELS 3 Zrotation Yrotation Xrotation
									End Site
									{
										OFFSET 0.57892 -0.00000 0.57892
									}
								}
							}
						}
					}
				}
				JOINT RightShoulder
				{
					OFFSET 0 0 0
					CHANNELS 3 Zrotation Yrotation Xrotation
					JOINT RightArm
					{
						OFFSET -2.80694 1.55459 -0.32496
						CHANNELS 3 Zrotation Yrotation Xrotation
						JOINT RightForeArm
						{
							OFFSET -4.71925 -0.00000 -0.00000
							CHANNELS 3 Zrotation Yrotation Xrotation
							JOINT RightHand
							{
								OFFSET -3.56990 -0.00000 0.00000
								CHANNELS 3 Zrotation Yrotation Xrotation
								JOINT RightFingerBase
								{
									OFFSET 0 0 0
									CHANNELS 3 Zrotation Yrotation Xrotation
									JOINT RightHandIndex1
									{
										OFFSET -0.50776 -0.00000 0.00000
										CHANNELS 3 Zrotation Yrotation Xrotation
										End Site
										{
											OFFSET -0.40937 -0.00000 0.00000
										}
									}
								}
								JOINT RThumb
								{
									OFFSET 0 0 0
									CHANNELS 3 Zrotation Yrotation Xrotation
									End Site
									{
										OFFSET -0.41562 -0.00000 0.41562
									}
								}
							}
						}
					}
				}
			}
		}
	}
}
MOTION
Frames: 13
Frame Time: .0083333
8.6567 15.9180 13.1863 168.3380 -1.4648 -143.5410 0.0000 0.0000 0.0000 1.3980 -16.4655 -19.5122 2.6585 10.1206 29.3682 -2.4375 31.2550 6.4017 0.7936 -5.6863 -15.8767 0.0000 0.0000 0.0000 -16.2674 -0.8862 -89.2893 -11.7016 -18.2616 65.0399 -1.1696 -5.4230 -23.0547 -2.1216 9.1148 -26.1552 0.9220 -3.6959 -1.5761 -0.4814 -5.0853 3.5666 -1.2839 -2.5370 4.4366 2.3830 -5.6706 -4.6565 -0.1853 -7.7132 5.6374 -0.7309 -3.7857 2.4802 -0.0000 0.0000 0.0000 -55.5627 -26.7448 41.3906 44.9447 -50.7414 -22.1959 -0.0000 0.0000 -13.7506 26.6876 -15.4915 -7.6470 -7.1250 0.0000 -0.0000 -0.6435 12.7461 0.4857 -0.0000 0.0000 0.0000 54.6727 11.5143 21.4051 -32.4755 42.9230 -13.0635 0.0000 -0.0000 -8.4546 -16.7773 -45.1087 12.0564 7.1250 -0.0000 -0.0000 37.7096 -73.4163 -26.3258
8.7533 16.0133 13.1016 168.5020 -1.3083 -143.5810 0.0000 0.0000 0.0000 1.2676 -16.2247 -20.8873 3.2833 11.1401 32.7537 -2.6784 31.7126 5.0717 0.8861 -6.0005 -16.7859 0.0000 0.0000 0.0000 -15.5658 -0.2337 -88.5948 -11.5177 -18.1792 64.4516 -1.2008 -4.9131 -23.0089 -2.0818 9.0345 -25.9033 0.8407 -3.5986 -1.7329 -0.3208 -4.9420 3.3971 -1.0707 -2.4663 4.3730 2.0465 -5.6172 -3.8326 -0.1540 -7.5874 5.6410 -0.6305 -3.7260 2.3465 -0.0000 0.0000 0.0000 -56.2214 -26.1200 41.3557 45.2098 -50.8708 -22.4014 -0.0000 0.0000 -13.5013 26.7814 -15.3258 -7.5986 -7.1250 0.0000 -0.0000 -0.5657 12.9147 0.4250 -0.0000 0.0000 0.0000 54.4696 11.5419 21.4333 -32.7876 43.1662 -13.2766 0.0000 -0.0000 -8.7005 -16.8368 -45.3755 12.1548 7.1250 -0.0000 -0.0000 38.3134 -73.6281 -26.9426
8.8469 16.1075 13.0179 168.7160 -1.0599 -143.6110 0.0000 0.0000 0.0000 1.1221 -15.9032 -22.2366 3.9589 12.1055 36.1061 -2.8472 31.9373 3.9307 1.1380 -6.7746 -19.0493 0.0000 0.0000 0.0000 -14.7980 0.4622 -87.9853 -11.3492 -18.1018 63.9105 -1.2546 -4.2765 -23.0917 -2.0246 8.9172 -25.5366 0.8214 -3.3848 -1.8953 -0.2419 -4.6664 3.5514 -0.9832 -2.3300 4.6399 2.0263 -5.6226 -4.5038 -0.1031 -7.6184 5.9874 -0.6462 -3.7351 2.5880 -0.0000 0.0000 0.0000 -56.6535 -26.1990 41.0806 45.3234 -50.9259 -22.4895 -0.0000 0.0000 -13.1409 27.0494 -15.4924 -7.7667 -7.1250 0.0000 -0.0000 -0.4017 12.6925 0.3036 -0.0000 0.0000 0.0000 54.3631 12.0775 20.9675 -32.9523 43.2933 -13.3893 0.0000 -0.0000 -8.9725 -16.9524 -45.3798 12.2415 7.1250 -0.0000 -0.0000 38.2013 -73.6736 -26.8931
8.9362 16.1994 12.9338 168.9660 -0.8398 -143.5910 0.0000 0.0000 0.0000 1.0325 -15.6988 -23.5986 4.6737 13.0066 39.3932 -3.0210 32.0787 2.5054 0.8464 -5.8680 -16.4019 0.0000 0.0000 0.0000 -13.9907 1.1284 -87.3394 -11.1459 -18.0057 63.2545 -1.3032 -3.6975 -23.1800 -1.9809 8.8261 -25.2528 0.7297 -3.2478 -2.0811 -0.0863 -4.4812 3.5325 -0.7740 -2.2406 4.7487 1.9797 -5.5962 -4.5770 -0.1038 -7.5809 6.0819 -0.6426 -3.7155 2.6355 0.0000 -0.0000 0.0000 -57.1652 -25.9036 40.9035 45.3791 -50.9528 -22.5328 -0.0000 0.0000 -12.9042 27.3255 -15.7793 -7.9982 -7.1250 0.0000 -0.0000 -0.2444 12.3354 0.1865 0.0000 -0.0000 0.0000 54.2978 12.4979 20.8236 -33.0594 43.3757 -13.4629 0.0000 -0.0000 -9.3920 -16.9202 -45.6653 12.2757 7.1250 -0.0000 -0.0000 38.9683 -73.8623 -27.6211
9.0245 16.2890 12.8509 169.2430 -0.6666 -143.6000 0.0000 0.0000 0.0000 0.9743 -15.6398 -24.9602 5.4461 13.8693 42.7162 -3.1996 32.2786 1.0650 0.5344 -4.6840 -13.0095 0.0000 0.0000 0.0000 -13.0706 1.7043 -86.5996 -10.8633 -17.8676 62.3369 -1.3140 -3.2603 -23.0466 -1.9694 8.8021 -25.1782 0.5511 -3.2810 -2.2817 0.1909 -4.5147 3.3639 -0.3989 -2.2634 4.7223 1.6025 -5.3494 -3.8487 -0.1823 -7.1945 5.8910 -0.5614 -3.5342 2.4528 -0.0000 0.0000 0.0000 -57.6914 -25.0697 40.7313 45.3608 -50.9440 -22.5186 -0.0000 0.0000 -12.6915 27.4813 -15.8010 -8.0615 -7.1250 0.0000 -0.0000 -0.1427 12.2878 0.1091 -0.0000 0.0000 0.0000 54.2253 12.8521 21.2612 -33.1738 43.4632 -13.5415 0.0000 -0.0000 -9.9667 -16.5713 -46.4197 12.1646 7.1250 -0.0000 -0.0000 41.3495 -74.2469 -29.7598
9.1137 16.3783 12.7663 169.5310 -0.5402 -143.7160 0.0000 0.0000 0.0000 0.8838 -15.6042 -26.1992 6.2531 14.6692 45.9891 -3.2454 32.1918 0.3161 0.6323 -5.0880 -14.1597 0.0000 0.0000 0.0000 -11.9822 2.1758 -85.7783 -10.6034 -17.7355 61.4868 -1.3439 -2.6486 -22.9953 -1.9453 8.7512 -25.0200 0.4997 -3.2381 -2.5108 0.3037 -4.4595 3.3798 -0.2668 -2.2374 4.8827 1.6743 -5.1903 -3.7715 -0.3559 -6.9690 6.0498 -0.6218 -3.4217 2.4846 0.0000 -0.0000 0.0000 -57.8970 -24.5570 40.6980 45.2933 -50.9114 -22.4662 -0.0000 0.0000 -12.4772 27.2640 -15.7021 -7.9398 -7.1250 0.0000 -0.0000 -0.2781 12.4297 0.2117 0.0000 -0.0000 0.0000 54.5207 13.1984 21.4513 -33.2070 43.4885 -13.5643 0.0000 -0.0000 -10.3396 -16.1552 -46.5209 11.8707 7.1250 -0.0000 -0.0000 42.0462 -74.1582 -30.2283
9.2003 16.4672 12.6801 169.8650 -0.3715 -143.8090 0.0000 0.0000 0.0000 0.7775 -15.4436 -27.3799 7.0390 15.3646 49.0215 -3.1009 31.7515 0.8517 1.0265 -6.4449 -18.0808 0.0000 0.0000 0.0000 -10.8453 2.6773 -84.9920 -10.4019 -17.6297 60.8233 -1.3986 -1.8709 -23.0884 -1.8712 8.5926 -24.5290 0.5094 -3.1891 -2.8734 0.3963 -4.3995 3.4108 -0.1974 -2.2055 5.1285 1.6940 -5.0743 -3.8414 -0.4939 -6.8004 6.4218 -0.6743 -3.3340 2.6182 0.0000 -0.0000 0.0000 -58.2237 -24.0650 40.5854 45.0599 -50.7978 -22.2851 -0.0000 0.0000 -11.9956 27.2079 -15.5505 -7.8474 -7.1250 0.0000 -0.0000 -0.3011 12.6054 0.2281 0.0000 -0.0000 0.0000 54.8979 13.4728 21.7341 -33.2788 43.5433 -13.6138 0.0000 -0.0000 -10.2810 -15.6035 -46.0603 11.3702 7.1250 -0.0000 -0.0000 41.3588 -73.6468 -29.2737
9.2852 16.5547 12.6002 170.1400 -0.1198 -143.8800 0.0000 0.0000 0.0000 0.5668 -15.3457 -28.5850 7.8434 16.0028 51.9965 -2.8889 30.9396 1.2802 1.4663 -7.6525 -21.6635 0.0000 0.0000 0.0000 -9.8194 3.1694 -84.2329 -10.1730 -17.5060 60.0650 -1.4100 -1.2538 -22.9260 -1.8141 8.4676 -24.1435 0.4048 -3.1351 -3.1859 0.4776 -4.3209 3.3607 -0.0677 -2.1680 5.2686 1.5370 -4.9918 -3.5922 -0.4365 -6.6703 6.6279 -0.6221 -3.2653 2.6503 0.0000 0.0000 0.0000 -58.6232 -23.4773 40.5503 44.7587 -50.6497 -22.0520 -0.0000 0.0000 -11.6342 27.3857 -15.3567 -7.8116 -7.1250 0.0000 -0.0000 -0.1640 12.7933 0.1236 0.0000 0.0000 0.0000 55.2793 13.5960 22.1986 -33.3976 43.6334 -13.6957 0.0000 -0.0000 -10.1967 -15.4745 -45.8650 11.2379 7.1250 -0.0000 -0.0000 40.9801 -73.4674 -28.8364
9.3688 16.6392 12.5248 170.4350 0.0687 -143.9500 0.0000 0.0000 0.0000 0.4081 -15.3592 -29.8560 8.6957 16.6078 55.0315 -2.7056 29.9096 0.9261 1.7705 -8.3707 -23.8457 0.0000 0.0000 0.0000 -8.7675 3.6361 -83.4660 -9.9315 -17.3712 59.2593 -1.4028 -0.8829 -22.7256 -1.8482 8.5424 -24.3740 0.3007 -3.1289 -3.3958 0.6216 -4.3013 3.1895 0.1335 -2.1604 5.2278 1.0919 -5.0444 -3.4695 -0.1943 -6.7066 7.3641 -0.4841 -3.2699 2.9006 -0.0000 -0.0000 0.0000 -59.1171 -22.5408 40.5699 44.6455 -50.5936 -21.9645 -0.0000 0.0000 -11.5846 27.2907 -15.1720 -7.6901 -7.1250 0.0000 -0.0000 -0.2103 13.0112 0.1576 -0.0000 -0.0000 0.0000 55.5509 13.4805 23.0000 -33.5908 43.7792 -13.8291 0.0000 -0.0000 -10.3697 -15.4596 -45.9398 11.2406 7.1250 -0.0000 -0.0000 41.1889 -73.5125 -29.0329
9.4529 16.7204 12.4476 170.7750 0.2840 -144.0010 0.0000 0.0000 0.0000 0.2431 -15.3380 -31.1030 9.5469 17.1471 57.9630 -2.5257 28.8426 0.5237 2.0516 -8.9728 -25.7104 0.0000 0.0000 0.0000 -7.7251 4.1699 -82.7139 -9.7111 -17.2441 58.5183 -1.4194 -0.4943 -22.7148 -1.8536 8.5542 -24.4104 0.1687 -3.1539 -3.6539 0.8022 -4.3208 2.9636 0.3837 -2.1729 5.1626 0.7027 -4.7677 -2.7111 -0.3778 -6.2762 7.1987 -0.4356 -3.0688 2.7130 0.0000 0.0000 0.0000 -59.6288 -21.3726 40.5834 44.5503 -50.5463 -21.8910 -0.0000 0.0000 -11.3492 26.9977 -15.0311 -7.5268 -7.1250 0.0000 -0.0000 -0.3941 13.2086 0.2936 0.0000 0.0000 0.0000 55.8095 13.2028 23.9854 -33.8720 43.9897 -14.0241 0.0000 -0.0000 -10.3705 -14.9047 -46.3459 10.9004 7.1250 -0.0000 -0.0000 42.8113 -73.5791 -30.3348
9.5371 16.8007 12.3697 171.0830 0.4769 -144.0580 0.0000 0.0000 0.0000 -0.0106 -15.3262 -32.2678 10.3667 17.6109 60.7070 -2.3021 27.6372 0.4834 2.5474 -9.9237 -28.7299 0.0000 0.0000 0.0000 -6.7284 4.6453 -81.8811 -9.4528 -17.0905 57.6434 -1.4310 0.0157 -22.6296 -1.8095 8.4575 -24.1125 0.1361 -3.0849 -3.9765 0.7777 -4.2205 2.8991 0.3679 -2.1203 5.2783 0.9111 -4.5789 -2.6874 -0.5969 -6.0025 7.6366 -0.5392 -2.9241 2.8440 -0.0000 0.0000 0.0000 -59.7189 -20.6416 40.7460 44.2647 -50.4031 -21.6706 -0.0000 0.0000 -11.0497 26.7056 -15.0763 -7.4548 -7.1250 0.0000 -0.0000 -0.5944 13.2001 0.4430 -0.0000 0.0000 0.0000 56.4652 12.9720 24.6102 -34.0750 44.1402 -14.1653 0.0000 -0.0000 -10.2542 -14.7204 -46.5654 10.8011 7.1250 -0.0000 -0.0000 43.5796 -73.6541 -30.9941
9.6186 16.8852 12.2930 171.3220 0.6212 -144.1940 0.0000 0.0000 0.0000 -0.4049 -15.3602 -33.3421 11.1622 18.0135 63.3070 -2.0576 26.3502 0.7398 3.2759 -11.1287 -32.7153 0.0000 0.0000 0.0000 -5.8123 5.0677 -80.8736 -9.1669 -16.9139 56.6654 -1.4289 0.4455 -22.4738 -1.7673 8.3637 -23.8242 0.0660 -3.1037 -4.2338 0.7695 -4.2326 2.7629 0.3868 -2.1246 5.2870 1.0071 -4.5611 -1.9240 -0.7000 -5.9564 7.4240 -0.5594 -2.8989 2.6248 0.0000 -0.0000 0.0000 -59.9739 -19.6362 40.8102 43.8743 -50.2049 -21.3703 -0.0000 0.0000 -10.6939 26.5517 -15.1440 -7.4377 -7.1250 0.0000 -0.0000 -0.7038 13.1472 0.5253 0.0000 -0.0000 0.0000 57.1164 12.6633 25.5393 -34.1523 44.1972 -14.2191 0.0000 -0.0000 -10.0636 -14.9867 -46.5545 10.9988 7.1250 -0.0000 -0.0000 43.2907 -73.7455 -30.8481
9.6964 16.9704 12.2155 171.4320 0.9473 -144.4540 0.0000 0.0000 0.0000 -1.1185 -15.3977 -34.1941 11.9044 18.3499 65.6855 -1.8691 25.1552 0.5953 3.8804 -11.9996 -35.7304 0.0000 0.0000 0.0000 -5.1400 5.5408 -79.7774 -8.9077 -16.7480 55.7705 -1.4322 0.8925 -22.3632 -1.6964 8.2029 -23.3320 -0.1153 -2.9823 -4.2887 0.6481 -4.0558 2.8315 0.3723 -2.0419 5.3917 1.2098 -4.7998 -2.3504 -0.7384 -6.2807 7.9153 -0.6377 -3.0491 2.8584 -0.0000 -0.0000 0.0000 -60.1924 -19.2725 40.9425 43.2861 -49.9007 -20.9193 -0.0000 0.0000 -10.4475 26.3135 -15.2476 -7.4100 -7.1250 0.0000 -0.0000 -0.8727 13.0669 0.6529 -0.0000 -0.0000 0.0000 57.7979 12.5506 25.9070 -34.1646 44.2063 -14.2277 0.0000 -0.0000 -9.6653 -15.0630 -46.8343 11.1057 7.1250 -0.0000 -0.0000 43.9847 -73.9539 -31.5686
